# xmcd CD database file
#
# Track frame offsets:
#	180
#	15565
#	27860
#	40208
#	53741
#	69077
#	83243
#	98761
#	113760
#	127695
#	141152
#	156243
#	168812
#
# Disc length: 2448 seconds
#
# Revision: 0
# Processed by: cddbd v1.5.2PL0 Copyright (c) Steve Scherf et al.
# Submitted via: CDex 1.70beta2
#
DISCID=94098e0d
DTITLE=Charlie Parker - Great Master [CD6 of 10)
DYEAR=1900
DGENRE=Jazz
TTITLE0=An Oscar For Treadwell (1950)
TTITLE1=Bird's Nest (1947)
TTITLE2=Chasin' The Bird (1947)
TTITLE3=Dexterity (1947)
TTITLE4=Embraceable You (1947)
TTITLE5=Hot House (1945)
TTITLE6=K. C. Blues (1951)
TTITLE7=Lover Man (1946)
TTITLE8=My Little Suede Shoes (1951)
TTITLE9=Passport (1949)
TTITLE10=Segment (1949)
TTITLE11=Summertime (1949)
TTITLE12=Charlie Parker - They Canﾴt Take It Away From Me
EXTD=
EXTT0=
EXTT1=
EXTT2=
EXTT3=
EXTT4=
EXTT5=
EXTT6=
EXTT7=
EXTT8=
EXTT9=
EXTT10=
EXTT11=
EXTT12=
PLAYORDER=
